<svg version="1.1" xmlns="http://www.w3.org/2000/svg" xmlns:xlink="http://www.w3.org/1999/xlink" width="35.02341" height="38.62497" viewBox="0,0,35.02341,38.62497"><g transform="translate(-222.4883,-160.68752)"><g data-paper-data="{&quot;isPaintingLayer&quot;:true}" fill="#fbff00" fill-rule="nonzero" stroke="none" stroke-width="0" stroke-linecap="butt" stroke-linejoin="miter" stroke-miterlimit="10" stroke-dasharray="" stroke-dashoffset="0" style="mix-blend-mode: normal"><path d="M222.4883,180c0,-10.66599 8.6465,-19.31248 19.31249,-19.31248c4.47707,0 9.1505,1.18735 11.97621,4.66609c3.47581,4.27908 3.60613,6.8373 3.60613,6.8373l-6.57434,3.21138l-3.91058,5.09022l-0.84375,-4.1148l-10.07068,3.77741l4.45096,1.7098l2.94256,-2.597l0.58346,3.88141l4.21891,1.5046l3.54111,-5.17808l0.61253,6.71415l5.17841,2.2349c0,0 -0.95567,3.85856 -3.6242,6.3376c-3.09419,2.87447 -7.53504,4.54999 -12.08673,4.54999c-10.66599,0 -19.31249,-8.64649 -19.31249,-19.31248z"/></g></g></svg>